<mxfile host="app.diagrams.net" modified="2024-01-06T19:21:39.138Z" agent="Mozilla/5.0 (Windows NT 10.0; Win64; x64; rv:121.0) Gecko/20100101 Firefox/121.0" etag="q0ZhhHuSqorXahx3f6r6" version="22.1.17" type="github">
  <diagram name="Page-1" id="bHBYUuS_1wNKQq4gKL0O">
    <mxGraphModel dx="1050" dy="538" grid="1" gridSize="10" guides="1" tooltips="1" connect="1" arrows="1" fold="1" page="1" pageScale="1" pageWidth="827" pageHeight="1169" math="0" shadow="0">
      <root>
        <mxCell id="0" />
        <mxCell id="1" parent="0" />
        <mxCell id="vBl7tX9VGNm2oZG5aJBP-1" value="Load Variables" style="rounded=1;whiteSpace=wrap;html=1;arcSize=40;fontColor=#000000;fillColor=#ffffc0;strokeColor=#ff0000;" vertex="1" parent="1">
          <mxGeometry x="315" y="90" width="120" height="40" as="geometry" />
        </mxCell>
        <mxCell id="vBl7tX9VGNm2oZG5aJBP-2" value="" style="edgeStyle=orthogonalEdgeStyle;html=1;verticalAlign=bottom;endArrow=open;endSize=8;strokeColor=#ff0000;rounded=0;" edge="1" source="vBl7tX9VGNm2oZG5aJBP-1" parent="1">
          <mxGeometry relative="1" as="geometry">
            <mxPoint x="375" y="170" as="targetPoint" />
          </mxGeometry>
        </mxCell>
        <mxCell id="vBl7tX9VGNm2oZG5aJBP-5" value="" style="ellipse;html=1;shape=startState;fillColor=#000000;strokeColor=#ff0000;" vertex="1" parent="1">
          <mxGeometry x="360" width="30" height="30" as="geometry" />
        </mxCell>
        <mxCell id="vBl7tX9VGNm2oZG5aJBP-6" value="" style="edgeStyle=orthogonalEdgeStyle;html=1;verticalAlign=bottom;endArrow=open;endSize=8;strokeColor=#ff0000;rounded=0;" edge="1" source="vBl7tX9VGNm2oZG5aJBP-5" parent="1">
          <mxGeometry relative="1" as="geometry">
            <mxPoint x="375" y="90" as="targetPoint" />
          </mxGeometry>
        </mxCell>
        <mxCell id="vBl7tX9VGNm2oZG5aJBP-7" value="Load Question File" style="rounded=1;whiteSpace=wrap;html=1;arcSize=40;fontColor=#000000;fillColor=#ffffc0;strokeColor=#ff0000;" vertex="1" parent="1">
          <mxGeometry x="315" y="170" width="120" height="40" as="geometry" />
        </mxCell>
        <mxCell id="vBl7tX9VGNm2oZG5aJBP-8" value="" style="edgeStyle=orthogonalEdgeStyle;html=1;verticalAlign=bottom;endArrow=open;endSize=8;strokeColor=#ff0000;rounded=0;entryX=0.5;entryY=0;entryDx=0;entryDy=0;" edge="1" source="vBl7tX9VGNm2oZG5aJBP-7" parent="1" target="vBl7tX9VGNm2oZG5aJBP-14">
          <mxGeometry relative="1" as="geometry">
            <mxPoint x="375" y="240" as="targetPoint" />
          </mxGeometry>
        </mxCell>
        <mxCell id="vBl7tX9VGNm2oZG5aJBP-14" value="Have all Questions been asked" style="rhombus;whiteSpace=wrap;html=1;fontColor=#000000;fillColor=#ffffc0;strokeColor=#ff0000;" vertex="1" parent="1">
          <mxGeometry x="317" y="250" width="116" height="70" as="geometry" />
        </mxCell>
        <mxCell id="vBl7tX9VGNm2oZG5aJBP-15" value="no" style="edgeStyle=orthogonalEdgeStyle;html=1;align=left;verticalAlign=bottom;endArrow=open;endSize=8;strokeColor=#ff0000;rounded=0;" edge="1" source="vBl7tX9VGNm2oZG5aJBP-14" parent="1">
          <mxGeometry x="-1" relative="1" as="geometry">
            <mxPoint x="480" y="380" as="targetPoint" />
          </mxGeometry>
        </mxCell>
        <mxCell id="vBl7tX9VGNm2oZG5aJBP-17" value="Start Quiz" style="text;html=1;align=center;verticalAlign=middle;resizable=0;points=[];autosize=1;strokeColor=none;fillColor=none;" vertex="1" parent="1">
          <mxGeometry x="230" y="230" width="80" height="30" as="geometry" />
        </mxCell>
      </root>
    </mxGraphModel>
  </diagram>
</mxfile>
